<svg width="112" height="27" viewBox="0 0 112 27" fill="#132135" xmlns="http://www.w3.org/2000/svg">
<path d="M43.3489 18.645C42.8576 18.8062 42.3562 18.9345 41.8479 19.0289C41.0845 19.164 40.31 19.2251 39.5349 19.2115C38.8168 19.2222 38.1032 19.0951 37.4329 18.837C36.8186 18.5984 36.2643 18.2278 35.8091 17.7513C35.3415 17.2561 34.9825 16.6688 34.7549 16.0269C34.4942 15.2907 34.3674 14.5137 34.3805 13.7328C34.3725 12.9868 34.4786 12.244 34.6951 11.5301C34.8849 10.8969 35.1983 10.3075 35.6172 9.79616C36.0221 9.30965 36.5321 8.92125 37.1088 8.66016C37.7447 8.37977 38.4341 8.24126 39.129 8.25423C39.7398 8.24104 40.3478 8.34024 40.9227 8.54688C41.315 8.68402 41.6874 8.87235 42.0304 9.10701V3.46477L43.3489 3.22247V18.645ZM42.0304 10.3846C41.8843 10.2713 41.7319 10.1662 41.5741 10.0699C41.3728 9.94877 41.1624 9.84356 40.9447 9.75525C40.6866 9.65706 40.4215 9.57818 40.1517 9.51924C39.8578 9.45787 39.5583 9.42729 39.258 9.42799C38.6937 9.41004 38.1334 9.52879 37.6248 9.77413C37.2015 9.99172 36.8367 10.308 36.5612 10.6962C36.2786 11.1079 36.0787 11.5707 35.9727 12.0587C35.848 12.6005 35.7868 13.1549 35.7902 13.7108C35.7902 15.0933 36.1353 16.1517 36.8255 16.886C37.1762 17.2555 37.6021 17.5455 38.0743 17.7366C38.5466 17.9277 39.0543 18.0153 39.5633 17.9936C40.0892 18.0008 40.6151 17.9703 41.1367 17.9024C41.442 17.8603 41.7438 17.7962 42.0398 17.7104L42.0304 10.3846Z" fill="currentColor"/>
<path d="M48.5538 5.31195C48.5607 5.44814 48.5391 5.58429 48.4903 5.71164C48.4415 5.83899 48.3667 5.95473 48.2705 6.05146C48.1801 6.14125 48.0724 6.21179 47.954 6.25884C47.8355 6.30589 47.7088 6.32848 47.5814 6.32523C47.4536 6.32766 47.3266 6.3047 47.2078 6.2577C47.089 6.21071 46.9806 6.14062 46.8891 6.05146C46.7066 5.84774 46.6057 5.58386 46.6057 5.31037C46.6057 5.03689 46.7066 4.77303 46.8891 4.5693C46.9806 4.48015 47.089 4.41006 47.2078 4.36306C47.3266 4.31607 47.4536 4.29311 47.5814 4.29553C47.7088 4.29229 47.8355 4.31488 47.954 4.36193C48.0724 4.40898 48.1801 4.47952 48.2705 4.5693C48.3667 4.66663 48.4416 4.78293 48.4904 4.9108C48.5391 5.03867 48.5607 5.17528 48.5538 5.31195V5.31195ZM48.2391 18.9691H46.9174V8.47765H48.2391V18.9691Z" fill="currentColor"/>
<path d="M58.6393 17.7513C58.5251 17.8401 58.4029 17.918 58.2743 17.9842C58.0794 18.087 57.8787 18.1785 57.6732 18.2579C57.4104 18.3606 57.1386 18.4386 56.8614 18.4908C56.5244 18.5558 56.1818 18.5864 55.8387 18.5821C55.2388 18.5838 54.6426 18.4881 54.0733 18.2989C53.5154 18.1165 53.0056 17.8111 52.5817 17.4052C52.1296 16.9613 51.7796 16.4244 51.5558 15.8317C51.2808 15.0816 51.1505 14.2861 51.1719 13.4874C51.1647 12.7825 51.2807 12.0817 51.5149 11.4168C51.7301 10.8051 52.0649 10.2424 52.4999 9.76154C52.9393 9.28736 53.476 8.9138 54.0733 8.66645C54.7334 8.39351 55.4423 8.25857 56.1565 8.26995C56.9415 8.25367 57.7262 8.31905 58.4977 8.46505C59.0862 8.59407 59.5708 8.7168 59.9484 8.83953V18.4184C59.9484 19.9897 59.5435 21.109 58.7337 21.7761C57.9239 22.4432 56.6935 22.7789 55.0425 22.7831C54.4277 22.7882 53.8136 22.7377 53.2079 22.632C52.7289 22.5484 52.2566 22.4295 51.795 22.2764L52.0593 21.0807C52.4867 21.2596 52.9334 21.3885 53.3904 21.4646C53.9481 21.5738 54.5151 21.6286 55.0834 21.6282C56.3421 21.6282 57.2327 21.3859 57.7928 20.9076C58.353 20.4292 58.6362 19.6048 58.6362 18.4405L58.6393 17.7513ZM58.6173 9.75524C58.3244 9.67417 58.027 9.61008 57.7267 9.56329C57.2054 9.49284 56.6794 9.46234 56.1533 9.47204C55.6348 9.46194 55.1201 9.56167 54.6429 9.76469C54.2102 9.95582 53.8254 10.2407 53.5163 10.5986C53.1952 10.9719 52.9533 11.4066 52.8051 11.8762C52.6363 12.4039 52.5534 12.9554 52.5597 13.5094C52.5462 14.1135 52.6432 14.715 52.846 15.2842C53.0066 15.7337 53.2584 16.1451 53.5855 16.4926C53.8778 16.7953 54.2351 17.0278 54.6303 17.1723C55.0144 17.3128 55.4202 17.3852 55.8292 17.3863C56.3848 17.3927 56.9373 17.3033 57.4624 17.122C57.8771 16.9889 58.265 16.7832 58.6078 16.5146L58.6173 9.75524Z" fill="currentColor"/>
<path d="M65.1531 5.31192C65.16 5.44811 65.1384 5.58426 65.0897 5.71161C65.0409 5.83896 64.966 5.9547 64.8699 6.05143C64.6836 6.22736 64.437 6.32536 64.1808 6.32536C63.9245 6.32536 63.6779 6.22736 63.4916 6.05143C63.3072 5.84867 63.205 5.58443 63.205 5.31034C63.205 5.03626 63.3072 4.77203 63.4916 4.56927C63.6779 4.39335 63.9245 4.29535 64.1808 4.29535C64.437 4.29535 64.6836 4.39335 64.8699 4.56927C64.9661 4.6666 65.041 4.7829 65.0897 4.91077C65.1385 5.03863 65.1601 5.17525 65.1531 5.31192V5.31192ZM64.8384 18.9691H63.5388V8.47762H64.8573L64.8384 18.9691Z" fill="currentColor"/>
<path d="M69.6562 8.47767H73.8351V9.5948H69.6562V15.1741C69.6442 15.6621 69.695 16.1497 69.8072 16.6248C69.8811 16.9434 70.0312 17.2392 70.2446 17.487C70.4283 17.6885 70.6685 17.83 70.9338 17.893C71.2263 17.9636 71.5265 17.9975 71.8275 17.9937C72.2821 18.0093 72.736 17.9443 73.168 17.8017C73.44 17.7035 73.704 17.5846 73.9579 17.4461L74.2725 18.5444C73.4934 18.966 72.6221 19.1887 71.7362 19.1926C71.1808 19.2078 70.6273 19.1214 70.103 18.9377C69.6848 18.7873 69.3189 18.5197 69.0488 18.1667C68.7683 17.7849 68.5769 17.3451 68.4887 16.8797C68.3737 16.2772 68.3199 15.6647 68.3282 15.0514V5.39379L69.6467 5.14835L69.6562 8.47767Z" fill="currentColor"/>
<path d="M85.2676 13.736C85.2766 14.5017 85.1564 15.2634 84.912 15.9891C84.7004 16.6251 84.3621 17.2117 83.9177 17.7135C83.4976 18.1848 82.9829 18.5622 82.4072 18.8212C81.7972 19.0807 81.1411 19.2144 80.4782 19.2144C79.8153 19.2144 79.1592 19.0807 78.5492 18.8212C77.9735 18.5622 77.4588 18.1848 77.0387 17.7135C76.5954 17.2109 76.2572 16.6246 76.0443 15.9891C75.5702 14.5244 75.5702 12.9475 76.0443 11.4828C76.2594 10.8455 76.5972 10.2564 77.0387 9.74895C77.4567 9.27303 77.9717 8.89212 78.5492 8.63183C79.1586 8.37021 79.8149 8.23529 80.4782 8.23529C81.1414 8.23529 81.7977 8.37021 82.4072 8.63183C82.9846 8.89212 83.4997 9.27303 83.9177 9.74895C84.3603 10.2556 84.6982 10.8449 84.912 11.4828C85.1564 12.2086 85.2766 12.9703 85.2676 13.736V13.736ZM83.8673 13.736C83.8673 12.4248 83.5631 11.3758 82.9547 10.5891C82.6535 10.2261 82.276 9.93393 81.8491 9.73339C81.4221 9.53285 80.9562 9.42887 80.4845 9.42887C80.0128 9.42887 79.5468 9.53285 79.1199 9.73339C78.6929 9.93393 78.3154 10.2261 78.0142 10.5891C77.4058 11.3675 77.1016 12.4164 77.1016 13.736C77.1016 15.0555 77.4058 16.0971 78.0142 16.8607C78.3172 17.223 78.6961 17.5144 79.124 17.7144C79.5519 17.9143 80.0184 18.018 80.4908 18.018C80.9631 18.018 81.4296 17.9143 81.8575 17.7144C82.2855 17.5144 82.6643 17.223 82.9673 16.8607C83.5673 16.0887 83.8673 15.0471 83.8673 13.736Z" fill="currentColor"/>
<path d="M89.6165 22.7233H88.298V8.8427C88.7894 8.68135 89.2908 8.55204 89.799 8.45562C90.5625 8.32205 91.3369 8.26096 92.1119 8.27312C92.8303 8.2634 93.5439 8.3916 94.214 8.65074C94.8279 8.89001 95.382 9.26053 95.8377 9.73638C96.3043 10.2324 96.6632 10.8195 96.8919 11.4608C97.1513 12.1974 97.2781 12.9741 97.2664 13.7549C97.2747 14.5009 97.1685 15.2438 96.9517 15.9576C96.7647 16.5891 96.4509 17.1759 96.0297 17.6821C95.6225 18.1639 95.1129 18.5488 94.5381 18.8087C93.9021 19.0891 93.2128 19.2276 92.5179 19.2146C91.9061 19.2275 91.2971 19.1283 90.721 18.9219C90.3302 18.7851 89.9589 18.5979 89.6165 18.365V22.7233ZM89.6165 17.0811C89.7618 17.1955 89.9142 17.3006 90.0728 17.3957C90.274 17.5169 90.4844 17.6221 90.7021 17.7104C90.9602 17.808 91.2253 17.8858 91.4951 17.9433C91.788 18.0047 92.0865 18.0352 92.3857 18.0345C92.95 18.0525 93.5106 17.9372 94.022 17.6978C94.4474 17.4876 94.8132 17.1738 95.0856 16.7853C95.3676 16.3743 95.5674 15.9127 95.6741 15.4258C95.7987 14.8841 95.8599 14.3297 95.8566 13.7738C95.8566 12.3913 95.5115 11.3318 94.8213 10.5955C94.4701 10.2269 94.0441 9.93762 93.5719 9.74712C93.0997 9.55662 92.5923 9.46927 92.0836 9.49094C91.5576 9.48375 91.0318 9.51424 90.5102 9.58219C90.2046 9.62233 89.9026 9.68651 89.607 9.77414L89.6165 17.0811Z" fill="currentColor"/>
<path d="M101.861 5.31192C101.867 5.44832 101.845 5.58455 101.796 5.71188C101.746 5.83921 101.671 5.95486 101.574 6.05143C101.388 6.22736 101.142 6.32536 100.885 6.32536C100.629 6.32536 100.382 6.22736 100.196 6.05143C100.012 5.84867 99.9095 5.58443 99.9095 5.31034C99.9095 5.03626 100.012 4.77203 100.196 4.56927C100.382 4.39335 100.629 4.29535 100.885 4.29535C101.142 4.29535 101.388 4.39335 101.574 4.56927C101.671 4.66644 101.746 4.78265 101.796 4.9105C101.845 5.03835 101.867 5.17504 101.861 5.31192V5.31192ZM101.546 18.9691H100.228V8.47762H101.546V18.9691Z" fill="currentColor"/>
<path d="M108.224 8.23222C108.823 8.21689 109.419 8.31733 109.98 8.52803C110.428 8.70092 110.829 8.97941 111.147 9.33991C111.45 9.69653 111.672 10.1155 111.795 10.5672C111.935 11.0691 112.004 11.5881 112 12.1091V18.7174C111.865 18.7552 111.669 18.7992 111.411 18.8464C111.153 18.8936 110.858 18.9471 110.518 19.0006C110.178 19.0541 109.803 19.0982 109.391 19.1328C108.979 19.1674 108.557 19.1831 108.132 19.1831C107.616 19.1881 107.101 19.1268 106.6 19.0006C106.16 18.8905 105.745 18.6937 105.382 18.4216C105.035 18.1529 104.757 17.8056 104.57 17.4083C104.362 16.9315 104.262 16.4147 104.278 15.8947C104.26 15.3895 104.368 14.8878 104.592 14.4346C104.808 14.0293 105.122 13.6843 105.505 13.4308C105.932 13.1527 106.407 12.9564 106.905 12.8518C107.485 12.7255 108.077 12.6643 108.671 12.6692C108.859 12.6692 109.061 12.6692 109.272 12.6976C109.482 12.7259 109.684 12.7479 109.879 12.7794C110.074 12.8108 110.244 12.8486 110.386 12.8832C110.487 12.9021 110.587 12.9327 110.681 12.9745V12.3231C110.682 11.967 110.654 11.6114 110.6 11.2595C110.552 10.9225 110.43 10.6002 110.244 10.3154C110.05 10.0287 109.784 9.79762 109.473 9.64514C109.062 9.45987 108.614 9.37364 108.164 9.3934C107.585 9.37349 107.005 9.42742 106.439 9.55389C106.059 9.66403 105.782 9.74898 105.609 9.81821L105.423 8.66019C105.766 8.51607 106.124 8.41053 106.49 8.3455C107.063 8.25268 107.643 8.21475 108.224 8.23222V8.23222ZM108.346 18.0157C108.859 18.0157 109.309 17.9999 109.696 17.9653C110.027 17.9384 110.356 17.8943 110.681 17.8332V14.1388C110.451 14.0475 110.213 13.9759 109.97 13.9248C109.528 13.8414 109.079 13.8045 108.63 13.8147C108.291 13.8147 107.952 13.8389 107.616 13.887C107.275 13.9346 106.945 14.041 106.641 14.2017C106.351 14.3503 106.1 14.5661 105.911 14.8311C105.708 15.1522 105.609 15.528 105.628 15.9073C105.617 16.2489 105.682 16.5886 105.819 16.9017C105.941 17.1635 106.13 17.3883 106.367 17.5531C106.626 17.7234 106.916 17.843 107.22 17.9055C107.585 17.9827 107.957 18.0196 108.331 18.0157H108.346Z" fill="currentColor"/>
<path d="M27.2937 15.5485C27.1962 14.8846 27.0829 14.2237 26.9791 13.5629C26.8343 12.6189 26.6959 11.7 26.5385 10.7717C26.3812 9.84336 26.2238 8.91819 26.0507 7.98988C25.9312 7.29128 25.7896 6.599 25.7172 5.89726C25.6388 5.03059 25.3986 4.1863 25.0092 3.40811C24.3181 2.01367 23.1221 0.934652 21.6641 0.390324C21.0791 0.195616 20.4725 0.0730223 19.8578 0.0252826C19.1372 -0.0423388 18.4103 0.025982 17.7148 0.226684C16.9856 0.439531 16.2912 0.757557 15.6537 1.17073C13.6995 2.30673 11.7548 3.45847 9.80373 4.59762C7.52228 5.92872 5.2377 7.24723 2.9594 8.58148C1.85646 9.23876 0.992135 10.231 0.492295 11.4136C0.0916786 12.3661 -0.0682706 13.4025 0.0265675 14.4314C0.0940601 15.615 0.524805 16.749 1.26012 17.6789C2.1727 18.8496 3.14821 19.9793 4.09226 21.109C4.90099 22.053 5.61846 23.0978 6.58453 23.9065C7.0555 24.3293 7.56788 24.7035 8.11389 25.0236C9.47673 25.7921 10.9981 26.2368 12.5603 26.3232C13.6255 26.3822 14.6925 26.2435 15.7072 25.9142C16.7784 25.5251 17.8287 25.0808 18.854 24.583C19.6438 24.2275 20.4274 23.8436 21.1952 23.4533C22.2085 22.9404 23.2343 22.4464 24.2193 21.8799C26.2993 20.6904 27.2874 18.8433 27.3661 16.5303C27.3504 16.159 27.3504 15.8506 27.2937 15.5485ZM25.9689 16.9929C25.8747 17.974 25.4689 18.8992 24.8109 19.6331C24.2145 20.2673 23.4977 20.7765 22.7025 21.131C21.4438 21.7604 20.1851 22.418 18.9264 23.0191C17.718 23.5824 16.5474 24.2589 15.2477 24.5925C14.6136 24.735 13.9715 24.8401 13.325 24.9072C10.3481 24.8285 8.17053 23.7901 6.46496 21.7604C5.26602 20.3286 4.04505 18.9282 2.8587 17.4775C2.33948 16.8482 1.81711 16.2188 1.57795 15.4164C1.28325 14.4987 1.25813 13.5158 1.50557 12.5842C1.90207 11.1587 2.83038 10.1706 4.09226 9.43743C5.64364 8.54688 7.17614 7.62484 8.72123 6.72485C10.1404 5.89724 11.5722 5.08852 12.9915 4.26091C14.4107 3.43329 15.7103 2.60882 17.1106 1.85673C17.9896 1.37482 18.9992 1.18526 19.9931 1.31549C21.1536 1.44276 22.23 1.98204 23.0267 2.83539C23.756 3.65196 24.2183 4.67203 24.3515 5.75879C24.5434 6.90109 24.7228 8.04652 24.9085 9.18881C25.0343 9.9409 25.1665 10.6899 25.2892 11.4388C25.4906 12.6723 25.7046 13.9028 25.8777 15.1395C25.9765 15.752 26.0071 16.3736 25.9689 16.9929Z" fill="currentColor"/>
</svg>

